<svg width="22" height="22" viewBox="0 0 22 22" fill="none" xmlns="http://www.w3.org/2000/svg">
<rect width="22" height="22" rx="11" fill="white"/>
<path d="M11 2C6.00781 2 2 6.04297 2 11C2 15.9922 6.00781 20 11 20C15.957 20 20 15.9922 20 11C20 6.04297 15.957 2 11 2ZM13.8125 12.6523C14.1289 13.0039 14.1289 13.5312 13.8125 13.8477C13.4609 14.1992 12.9336 14.1992 12.6172 13.8477L11 12.1953L9.3125 13.8477C8.99609 14.1992 8.46875 14.1992 8.15234 13.8477C7.80078 13.5312 7.80078 13.0039 8.15234 12.6523L9.80469 11L8.15234 9.34766C7.80078 8.99609 7.80078 8.46875 8.15234 8.15234C8.46875 7.80078 8.99609 7.80078 9.3125 8.15234L11 9.83984L12.6523 8.1875C12.9688 7.83594 13.4961 7.83594 13.8125 8.1875C14.1641 8.50391 14.1641 9.03125 13.8125 9.38281L12.1602 11.0352L13.8125 12.6523Z" fill="#CC4A4A"/>
</svg>
