<svg width="114" height="36" viewBox="0 0 114 36" fill="none" xmlns="http://www.w3.org/2000/svg">
<path
    d="M104.369 0.000117H9.03554C8.68804 0.000117 8.3447 0.000117 7.99812 0.00191699C7.70799 0.00371699 7.42018 0.00894597 7.12727 0.013347C6.49094 0.0204586 5.8561 0.0736254 5.22828 0.172385C4.60134 0.273295 3.99403 0.46354 3.42691 0.736684C2.86048 1.01214 2.34292 1.37006 1.893 1.79747C1.44071 2.22368 1.0637 2.71632 0.776457 3.25645C0.488419 3.7955 0.288693 4.37315 0.184176 4.96943C0.0786653 5.56497 0.0218892 6.16737 0.0143569 6.77123C0.00556271 7.04717 0.00463401 7.32402 0 7.6V28.4028C0.00463401 28.6822 0.00556271 28.9529 0.0143569 29.2325C0.0218915 29.8363 0.0786676 30.4387 0.184176 31.0342C0.288404 31.6308 0.488142 32.2088 0.776457 32.748C1.06357 33.2864 1.44064 33.7771 1.893 34.2009C2.34121 34.6302 2.85911 34.9884 3.42691 35.2617C3.99403 35.5356 4.60127 35.727 5.22828 35.8294C5.85621 35.9274 6.49098 35.9806 7.12727 35.9886C7.42018 35.9947 7.70799 35.9982 7.99812 35.9982C8.34469 36 8.68806 36 9.03554 36H104.369C104.71 36 105.056 36 105.396 35.9982C105.685 35.9982 105.981 35.9947 106.27 35.9886C106.905 35.981 107.539 35.9278 108.165 35.8294C108.794 35.7263 109.404 35.5349 109.974 35.2617C110.541 34.9882 111.058 34.6301 111.506 34.2009C111.957 33.7754 112.335 33.2851 112.626 32.748C112.912 32.2084 113.11 31.6305 113.213 31.0342C113.318 30.4386 113.377 29.8364 113.389 29.2325C113.392 28.9529 113.392 28.6822 113.392 28.4028C113.4 28.0758 113.4 27.7506 113.4 27.4183V8.58261C113.4 8.25302 113.4 7.92607 113.392 7.6C113.392 7.32402 113.392 7.04717 113.389 6.77119C113.377 6.16728 113.318 5.56501 113.213 4.9694C113.11 4.37346 112.912 3.79586 112.626 3.25641C112.041 2.17379 111.113 1.29254 109.974 0.736603C109.404 0.464126 108.794 0.273932 108.165 0.172304C107.539 0.0731093 106.905 0.0199239 106.27 0.013221C105.981 0.00882897 105.685 0.00355499 105.396 0.00179999C105.056 0 104.71 0 104.369 0V0.000117Z"
    fill="black" />
<path
    d="M8.00209 35.2126C7.71336 35.2126 7.43161 35.2091 7.14514 35.203C6.55171 35.1956 5.95966 35.1466 5.37385 35.0562C4.82762 34.9668 4.29846 34.8007 3.80384 34.5631C3.31376 34.3275 2.86676 34.0186 2.47998 33.6481C2.08759 33.2821 1.76092 32.8575 1.51289 32.3913C1.26213 31.922 1.08859 31.419 0.998317 30.8998C0.900827 30.3419 0.848081 29.7778 0.840534 29.2123C0.834526 29.0225 0.82666 28.3905 0.82666 28.3905V7.6001C0.82666 7.6001 0.835037 6.97784 0.840581 6.79502C0.847808 6.23044 0.900247 5.66719 0.997446 5.11016C1.08789 4.58953 1.26156 4.08508 1.51246 3.61428C1.75957 3.14836 2.08443 2.72349 2.47445 2.35613C2.86403 1.98528 3.31246 1.67476 3.80338 1.43591C4.29686 1.1991 4.82502 1.03408 5.37015 0.946362C5.95788 0.855072 6.55198 0.805716 7.14747 0.798709L8.00256 0.78772H105.391L106.256 0.79915C106.847 0.805809 107.435 0.854725 108.018 0.94548C108.568 1.0343 109.102 1.20047 109.601 1.43854C110.584 1.9199 111.385 2.68146 111.89 3.61647C112.136 4.08403 112.307 4.58436 112.397 5.1005C112.495 5.6621 112.55 6.22977 112.561 6.79898C112.564 7.05386 112.564 7.32764 112.564 7.6001C112.572 7.9376 112.572 8.25884 112.572 8.58271V27.4185C112.572 27.7454 112.572 28.0645 112.564 28.3861C112.564 28.6788 112.564 28.9469 112.561 29.2229C112.549 29.7819 112.495 30.3395 112.399 30.891C112.31 31.414 112.138 31.9209 111.887 32.394C111.637 32.8552 111.312 33.2761 110.924 33.6411C110.537 34.0135 110.089 34.3243 109.598 34.5614C109.101 34.8008 108.568 34.9676 108.018 35.0562C107.432 35.1471 106.84 35.1961 106.246 35.203C105.969 35.2091 105.678 35.2126 105.396 35.2126L104.369 35.2144L8.00209 35.2126Z"
    fill="#F7F7F7" />
<path
    d="M23.6885 17.9004C23.6991 17.1192 23.9176 16.3533 24.3236 15.6739C24.7296 14.9944 25.31 14.4236 26.0108 14.0144C25.5656 13.4106 24.9783 12.9137 24.2956 12.5632C23.6128 12.2126 22.8534 12.0181 22.0777 11.9951C20.4228 11.8301 18.8186 12.9355 17.9753 12.9355C17.1157 12.9355 15.8174 12.0114 14.4193 12.0388C13.5149 12.0665 12.6336 12.3162 11.8611 12.7637C11.0886 13.2111 10.4514 13.8409 10.0114 14.5918C8.10557 17.7256 9.52715 22.3312 11.3528 24.8643C12.2662 26.1047 13.3337 27.4903 14.7306 27.4412C16.0975 27.3873 16.608 26.6134 18.2579 26.6134C19.8926 26.6134 20.3715 27.4412 21.7967 27.4099C23.2635 27.3873 24.1876 26.164 25.0689 24.9119C25.7252 24.028 26.2303 23.0512 26.5653 22.0176C25.7131 21.6753 24.986 21.1023 24.4744 20.3702C23.9628 19.638 23.6895 18.7791 23.6885 17.9004Z"
    fill="black" />
<path
    d="M20.9969 10.3293C21.7967 9.4175 22.1907 8.24558 22.0953 7.06238C20.8735 7.18425 19.7449 7.73883 18.9343 8.61561C18.538 9.04394 18.2345 9.54225 18.0411 10.0821C17.8477 10.6219 17.7683 11.1926 17.8073 11.7616C18.4184 11.7675 19.023 11.6417 19.5755 11.3936C20.128 11.1455 20.614 10.7816 20.9969 10.3293Z"
    fill="black" />
<path
    d="M40.0877 24.4258H35.6021L34.5249 27.4465H32.6249L36.8736 16.2704H38.8476L43.0963 27.4465H41.164L40.0877 24.4258ZM36.0667 23.0318H39.6222L37.8694 18.1293H37.8204L36.0667 23.0318Z"
    fill="black" />
<path
    d="M52.2723 23.3727C52.2723 25.9048 50.8453 27.5316 48.6918 27.5316C48.1463 27.5587 47.6037 27.4394 47.1263 27.1873C46.6489 26.9351 46.2559 26.5604 45.9923 26.106H45.9515V30.142H44.1904V19.2981H45.8951V20.6533H45.9275C46.2032 20.2011 46.6029 19.8283 47.0839 19.5747C47.565 19.321 48.1094 19.196 48.6594 19.2128C50.837 19.2128 52.2723 20.8476 52.2723 23.3727ZM50.4622 23.3727C50.4622 21.723 49.5645 20.6384 48.1948 20.6384C46.8492 20.6384 45.9442 21.7458 45.9442 23.3727C45.9442 25.0145 46.8492 26.114 48.1948 26.114C49.5645 26.114 50.4621 25.0373 50.4621 23.3727H50.4622Z"
    fill="black" />
<path
    d="M61.7146 23.3727C61.7146 25.9048 60.2871 27.5316 58.1336 27.5316C57.588 27.5587 57.0455 27.4394 56.5681 27.1873C56.0907 26.9351 55.6977 26.5604 55.4341 26.106H55.3933V30.142H53.6322V19.2981H55.3369V20.6533H55.3693C55.645 20.2011 56.0446 19.8283 56.5257 19.5747C57.0067 19.321 57.5512 19.196 58.1011 19.2128C60.2787 19.2128 61.7146 20.8476 61.7146 23.3727ZM59.9039 23.3727C59.9039 21.723 59.0063 20.6384 57.6366 20.6384C56.291 20.6384 55.3859 21.7458 55.3859 23.3727C55.3859 25.0145 56.291 26.114 57.6366 26.114C59.0063 26.114 59.9039 25.0373 59.9039 23.3727Z"
    fill="black" />
<path
    d="M67.9554 24.3325C68.0859 25.4408 69.2196 26.1685 70.7687 26.1685C72.2531 26.1685 73.3211 25.4408 73.3211 24.4415C73.3211 23.574 72.677 23.0546 71.1519 22.6986L69.6267 22.3497C67.4658 21.854 66.4627 20.8942 66.4627 19.3368C66.4627 17.4085 68.2321 16.084 70.7437 16.084C73.2313 16.084 74.936 17.4085 74.9934 19.3368H73.2156C73.1092 18.2215 72.1384 17.5482 70.7197 17.5482C69.301 17.5482 68.3302 18.2294 68.3302 19.2208C68.3302 20.0109 68.9502 20.4759 70.467 20.8318L71.7636 21.1341C74.178 21.6764 75.1803 22.5975 75.1803 24.2323C75.1803 26.3232 73.4275 27.6327 70.6382 27.6327C68.0284 27.6327 66.2664 26.3539 66.1526 24.3325L67.9554 24.3325Z"
    fill="black" />
<path
    d="M78.9829 17.3696V19.2979H80.6144V20.6225H78.9829V25.1145C78.9829 25.8124 79.3096 26.1376 80.0268 26.1376C80.2205 26.1344 80.4138 26.1214 80.6061 26.0989V27.4155C80.2836 27.4727 79.9559 27.4986 79.6279 27.4928C77.8909 27.4928 77.2134 26.8732 77.2134 25.2929V20.6225H75.9659V19.2979H77.2134V17.3696H78.9829Z"
    fill="black" />
<path
    d="M81.5587 23.3725C81.5587 20.8088 83.1486 19.1978 85.6278 19.1978C88.1154 19.1978 89.6979 20.8087 89.6979 23.3725C89.6979 25.9433 88.1237 27.5473 85.6278 27.5473C83.1328 27.5473 81.5587 25.9433 81.5587 23.3725ZM87.9035 23.3725C87.9035 21.6139 87.0548 20.5759 85.6278 20.5759C84.2008 20.5759 83.3521 21.6218 83.3521 23.3725C83.3521 25.1383 84.2008 26.1683 85.6278 26.1683C87.0548 26.1683 87.9035 25.1383 87.9035 23.3725H87.9035Z"
    fill="black" />
<path
    d="M91.1497 19.298H92.8293V20.6849H92.8701C92.9837 20.2517 93.2509 19.8689 93.6267 19.6008C94.0026 19.3327 94.4641 19.1957 94.9338 19.2127C95.1368 19.212 95.3392 19.233 95.5372 19.2751V20.8396C95.281 20.7652 95.0137 20.7311 94.7459 20.7385C94.4901 20.7286 94.235 20.7715 93.9982 20.8641C93.7615 20.9567 93.5486 21.0968 93.3743 21.2749C93.1999 21.453 93.0682 21.6649 92.9882 21.8959C92.9082 22.1269 92.8818 22.3716 92.9108 22.6132V27.4463H91.1497L91.1497 19.298Z"
    fill="black" />
<path
    d="M103.658 25.053C103.421 26.5322 101.904 27.5473 99.9637 27.5473C97.4678 27.5473 95.9186 25.9592 95.9186 23.4112C95.9186 20.8554 97.4761 19.1978 99.8896 19.1978C102.263 19.1978 103.756 20.7464 103.756 23.217V23.79H97.6963V23.8911C97.6684 24.191 97.7079 24.4931 97.8123 24.7773C97.9167 25.0616 98.0836 25.3215 98.3019 25.5398C98.5202 25.7581 98.7849 25.9298 99.0785 26.0434C99.372 26.1571 99.6876 26.2102 100.004 26.1991C100.421 26.2361 100.838 26.1446 101.195 25.9381C101.552 25.7316 101.829 25.4212 101.986 25.053L103.658 25.053ZM97.7047 22.6211H101.994C102.01 22.3514 101.967 22.0816 101.868 21.8285C101.768 21.5754 101.615 21.3446 101.418 21.1504C101.22 20.9562 100.982 20.8029 100.719 20.7001C100.456 20.5973 100.174 20.5472 99.8896 20.553C99.6028 20.5514 99.3186 20.6037 99.0532 20.707C98.7878 20.8103 98.5466 20.9624 98.3434 21.1547C98.1403 21.347 97.9793 21.5755 97.8696 21.8272C97.76 22.0789 97.7039 22.3487 97.7047 22.6211V22.6211Z"
    fill="black" />
<path
    d="M35.848 7.8579C36.2172 7.83274 36.5877 7.88571 36.9327 8.013C37.2778 8.14029 37.5888 8.33872 37.8433 8.59398C38.0979 8.84924 38.2895 9.15497 38.4046 9.48911C38.5196 9.82326 38.5552 10.1775 38.5086 10.5262C38.5086 12.2419 37.5323 13.228 35.848 13.228H33.8055V7.8579H35.848ZM34.6838 12.4686H35.7499C36.0137 12.4836 36.2777 12.4425 36.5227 12.3483C36.7677 12.2542 36.9876 12.1093 37.1662 11.9243C37.3448 11.7393 37.4778 11.5188 37.5553 11.2788C37.6329 11.0389 37.6532 10.7855 37.6146 10.5372C37.6504 10.2898 37.6281 10.038 37.5493 9.79985C37.4705 9.56166 37.3373 9.34295 37.159 9.15942C36.9808 8.97588 36.7621 8.83205 36.5184 8.73824C36.2748 8.64443 36.0124 8.60295 35.7499 8.61679H34.6838V12.4686Z"
    fill="black" />
<path
    d="M39.4999 11.2001C39.4731 10.9338 39.5052 10.6651 39.5941 10.4112C39.683 10.1574 39.8269 9.92398 40.0163 9.726C40.2058 9.52801 40.4368 9.36982 40.6944 9.26158C40.952 9.15333 41.2306 9.09741 41.5123 9.09741C41.794 9.09741 42.0726 9.15333 42.3302 9.26158C42.5879 9.36982 42.8188 9.52801 43.0083 9.726C43.1978 9.92398 43.3416 10.1574 43.4305 10.4112C43.5194 10.6651 43.5515 10.9338 43.5247 11.2001C43.552 11.4667 43.5203 11.7358 43.4316 11.9901C43.3429 12.2444 43.1992 12.4782 43.0097 12.6766C42.8202 12.8749 42.589 13.0335 42.3311 13.142C42.0733 13.2504 41.7943 13.3065 41.5123 13.3065C41.2303 13.3065 40.9513 13.2504 40.6935 13.142C40.4356 13.0335 40.2045 12.8749 40.0149 12.6766C39.8254 12.4782 39.6817 12.2444 39.593 11.9901C39.5043 11.7358 39.4726 11.4667 39.4999 11.2001ZM42.6585 11.2001C42.6585 10.3217 42.2429 9.80797 41.5137 9.80797C40.7817 9.80797 40.3699 10.3217 40.3699 11.2002C40.3699 12.0857 40.7817 12.5954 41.5137 12.5954C42.2429 12.5954 42.6585 12.0821 42.6585 11.2001H42.6585Z"
    fill="black" />
<path
    d="M48.8749 13.228H48.0013L47.1193 10.2433H47.0527L46.1745 13.228H45.3092L44.1329 9.17542H44.9871L45.7515 12.2678H45.8145L46.6918 9.17542H47.4997L48.377 12.2678H48.4436L49.2043 9.17542H50.0465L48.8749 13.228Z"
    fill="black" />
<path
    d="M51.0369 9.1756H51.8476V9.8194H51.9105C52.0172 9.58817 52.1973 9.39433 52.4256 9.26491C52.6538 9.13548 52.9189 9.07692 53.1839 9.09737C53.3915 9.08255 53.6 9.11228 53.7939 9.18437C53.9878 9.25645 54.1621 9.36905 54.3039 9.5138C54.4458 9.65856 54.5515 9.83178 54.6133 10.0206C54.6751 10.2095 54.6914 10.4091 54.6609 10.6047V13.2282H53.8187V10.8055C53.8187 10.1543 53.5208 9.83039 52.8979 9.83039C52.757 9.82415 52.6162 9.84694 52.4854 9.89718C52.3546 9.94743 52.2367 10.0239 52.14 10.1215C52.0432 10.219 51.9697 10.3353 51.9247 10.4623C51.8797 10.5893 51.8641 10.7241 51.879 10.8574V13.2282H51.0369L51.0369 9.1756Z"
    fill="black" />
<path d="M56.0034 7.59338H56.8456V13.228H56.0034V7.59338Z" fill="black" />
<path
    d="M58.0158 11.2001C57.989 10.9338 58.0211 10.665 58.1101 10.4112C58.199 10.1573 58.3429 9.92387 58.5324 9.72589C58.7219 9.5279 58.9528 9.36971 59.2105 9.26146C59.4681 9.15321 59.7467 9.09729 60.0284 9.09729C60.3102 9.09729 60.5888 9.15321 60.8464 9.26146C61.1041 9.36971 61.335 9.5279 61.5245 9.72589C61.714 9.92387 61.8578 10.1573 61.9468 10.4112C62.0357 10.665 62.0678 10.9338 62.041 11.2001C62.0683 11.4667 62.0366 11.7358 61.9479 11.9901C61.8592 12.2443 61.7154 12.4782 61.5259 12.6765C61.3363 12.8749 61.1052 13.0334 60.8473 13.1419C60.5894 13.2504 60.3105 13.3064 60.0284 13.3064C59.7464 13.3064 59.4675 13.2504 59.2096 13.1419C58.9517 13.0334 58.7205 12.8749 58.531 12.6765C58.3415 12.4782 58.1977 12.2443 58.109 11.9901C58.0203 11.7358 57.9885 11.4667 58.0158 11.2001ZM61.1744 11.2001C61.1744 10.3216 60.7588 9.80792 60.0296 9.80792C59.2976 9.80792 58.8858 10.3216 58.8858 11.2001C58.8858 12.0856 59.2976 12.5954 60.0296 12.5954C60.7588 12.5954 61.1744 12.0821 61.1744 11.2001H61.1744Z"
    fill="black" />
<path
    d="M62.9282 12.082C62.9282 11.3525 63.5001 10.932 64.5153 10.8722L65.6712 10.809V10.4591C65.6712 10.0311 65.3732 9.78942 64.7976 9.78942C64.3275 9.78942 64.0017 9.95334 63.9083 10.2399H63.093C63.179 9.54377 63.8685 9.09729 64.8365 9.09729C65.9063 9.09729 66.5097 9.60309 66.5097 10.4591V13.2281H65.699V12.6586H65.6324C65.4971 12.8629 65.3072 13.0294 65.082 13.1412C64.8568 13.253 64.6044 13.306 64.3506 13.2949C64.1715 13.3126 63.9904 13.2944 63.8191 13.2416C63.6478 13.1888 63.4901 13.1025 63.3561 12.9882C63.2221 12.8739 63.1148 12.7342 63.0411 12.5782C62.9674 12.4221 62.9289 12.2531 62.9282 12.082ZM65.6712 11.7357V11.3969L64.6292 11.4602C64.0415 11.4976 63.775 11.6874 63.775 12.0447C63.775 12.4094 64.1081 12.6217 64.5663 12.6217C64.7005 12.6346 64.8361 12.6217 64.965 12.5838C65.0939 12.5459 65.2134 12.4838 65.3165 12.4012C65.4196 12.3185 65.5041 12.217 65.5651 12.1027C65.626 11.9884 65.6621 11.8636 65.6712 11.7357Z"
    fill="black" />
<path
    d="M67.6144 11.2C67.6144 9.91942 68.3076 9.10819 69.3857 9.10819C69.6524 9.09652 69.9171 9.15718 70.1488 9.28308C70.3805 9.40899 70.5697 9.59493 70.6943 9.81918H70.7572V7.59338H71.5994V13.228H70.7924V12.5877H70.7258C70.5916 12.8105 70.3958 12.9941 70.1596 13.1188C69.9234 13.2434 69.6558 13.3043 69.3857 13.2948C68.3002 13.2949 67.6144 12.4836 67.6144 11.2ZM68.4844 11.2C68.4844 12.0595 68.911 12.5768 69.6245 12.5768C70.3343 12.5768 70.773 12.0521 70.773 11.2035C70.773 10.3589 70.3297 9.82669 69.6245 9.82669C68.9156 9.82669 68.4844 10.3474 68.4844 11.2H68.4844Z"
    fill="black" />
<path
    d="M75.0837 11.2001C75.0569 10.9338 75.089 10.6651 75.1779 10.4112C75.2668 10.1574 75.4107 9.92398 75.6001 9.726C75.7896 9.52801 76.0206 9.36982 76.2782 9.26158C76.5358 9.15333 76.8144 9.09741 77.0961 9.09741C77.3778 9.09741 77.6564 9.15333 77.914 9.26158C78.1716 9.36982 78.4026 9.52801 78.5921 9.726C78.7815 9.92398 78.9254 10.1574 79.0143 10.4112C79.1032 10.6651 79.1353 10.9338 79.1085 11.2001C79.1358 11.4667 79.1041 11.7358 79.0154 11.9901C78.9267 12.2444 78.783 12.4782 78.5935 12.6766C78.4039 12.8749 78.1728 13.0335 77.9149 13.142C77.6571 13.2504 77.3781 13.3065 77.0961 13.3065C76.8141 13.3065 76.5351 13.2504 76.2773 13.142C76.0194 13.0335 75.7883 12.8749 75.5987 12.6766C75.4092 12.4782 75.2655 12.2444 75.1768 11.9901C75.0881 11.7358 75.0564 11.4667 75.0837 11.2001ZM78.2423 11.2001C78.2423 10.3217 77.8267 9.80797 77.0975 9.80797C76.3655 9.80797 75.9537 10.3217 75.9537 11.2002C75.9537 12.0857 76.3655 12.5954 77.0975 12.5954C77.8267 12.5954 78.2423 12.0821 78.2423 11.2001Z"
    fill="black" />
<path
    d="M80.2384 9.1756H81.0491V9.8194H81.112C81.2188 9.58817 81.3988 9.39433 81.6271 9.26491C81.8554 9.13548 82.1205 9.07692 82.3854 9.09737C82.5931 9.08255 82.8015 9.11228 82.9954 9.18437C83.1893 9.25645 83.3637 9.36905 83.5055 9.5138C83.6473 9.65856 83.7531 9.83178 83.8149 10.0206C83.8767 10.2095 83.8929 10.4091 83.8624 10.6047V13.2282H83.0203V10.8055C83.0203 10.1543 82.7223 9.83039 82.0995 9.83039C81.9585 9.82415 81.8178 9.84694 81.6869 9.89718C81.5561 9.94743 81.4383 10.0239 81.3415 10.1215C81.2447 10.219 81.1713 10.3353 81.1263 10.4623C81.0812 10.5893 81.0656 10.7241 81.0806 10.8574V13.2282H80.2384V9.1756Z"
    fill="black" />
<path
    d="M88.6219 8.16663V9.19406H89.5465V9.86775H88.6219V11.9516C88.6219 12.3761 88.8061 12.562 89.2253 12.562C89.3327 12.5617 89.4399 12.5555 89.5465 12.5436V13.2098C89.3952 13.2355 89.242 13.2491 89.0884 13.2506C88.1518 13.2506 87.7789 12.9377 87.7789 12.1564V9.86771H87.1014V9.19403H87.7789V8.16663H88.6219Z"
    fill="black" />
<path
    d="M90.6969 7.59338H91.5316V9.82668H91.5983C91.7102 9.59329 91.8952 9.39836 92.1281 9.26845C92.3609 9.13854 92.6302 9.07996 92.8994 9.10071C93.1059 9.09003 93.3124 9.12278 93.5041 9.19662C93.6958 9.27046 93.868 9.38356 94.0083 9.52787C94.1487 9.67217 94.2538 9.84412 94.3162 10.0314C94.3785 10.2188 94.3965 10.4168 94.369 10.6115V13.228H93.526V10.8088C93.526 10.1615 93.2085 9.8337 92.6135 9.8337C92.4688 9.82243 92.3232 9.84133 92.1869 9.88907C92.0507 9.93682 91.9271 10.0123 91.8247 10.1101C91.7224 10.208 91.6438 10.3259 91.5945 10.4556C91.5451 10.5854 91.5262 10.7238 91.5391 10.8611V13.228H90.6969L90.6969 7.59338Z"
    fill="black" />
<path
    d="M99.2795 12.1338C99.1651 12.5042 98.9172 12.8246 98.5792 13.0389C98.2412 13.2533 97.8346 13.3479 97.4305 13.3063C97.1494 13.3133 96.87 13.2622 96.6117 13.1564C96.3535 13.0507 96.1226 12.8928 95.935 12.6938C95.7475 12.4947 95.6078 12.2593 95.5256 12.0039C95.4435 11.7485 95.4209 11.4791 95.4593 11.2145C95.4219 10.9491 95.4449 10.6792 95.5269 10.423C95.6088 10.1668 95.7478 9.93028 95.9343 9.72952C96.1209 9.52875 96.3507 9.3684 96.6082 9.25931C96.8657 9.15022 97.1448 9.09495 97.4268 9.09724C98.6141 9.09724 99.3304 9.86763 99.3304 11.1402V11.4193H96.3172V11.4641C96.304 11.6128 96.3237 11.7625 96.375 11.9036C96.4263 12.0447 96.508 12.174 96.615 12.2833C96.722 12.3927 96.8519 12.4795 96.9963 12.5384C97.1407 12.5972 97.2965 12.6268 97.4536 12.6251C97.6551 12.6481 97.8592 12.6136 98.0399 12.5262C98.2207 12.4387 98.37 12.3021 98.4688 12.1338L99.2795 12.1338ZM96.3172 10.8278H98.4725C98.4831 10.6918 98.4637 10.5552 98.4154 10.4267C98.3671 10.2983 98.291 10.1808 98.1921 10.082C98.0932 9.9831 97.9736 9.90497 97.841 9.85261C97.7084 9.80026 97.5657 9.77482 97.4221 9.77795C97.2765 9.77621 97.1319 9.80218 96.997 9.85433C96.8621 9.90648 96.7395 9.98376 96.6366 10.0816C96.5336 10.1794 96.4523 10.2959 96.3974 10.424C96.3426 10.5522 96.3153 10.6895 96.3172 10.8278H96.3172Z"
    fill="black" /> 
</svg>