<svg width="114" height="36" viewBox="0 0 114 36" fill="none" xmlns="http://www.w3.org/2000/svg">
<path
    d="M8.57338 0H104.921C105.244 0 105.573 0 105.896 0.00179999C106.17 0.00355499 106.451 0.00882897 106.725 0.013221C107.328 0.0199239 107.929 0.0731093 108.523 0.172304C109.12 0.273932 109.698 0.464126 110.239 0.736603C111.321 1.29254 112.201 2.17379 112.756 3.25641C113.027 3.79586 113.215 4.37346 113.312 4.9694C113.413 5.56501 113.468 6.16728 113.479 6.77119C113.483 7.04717 113.483 7.32402 113.483 7.6C113.49 7.92607 113.49 8.25302 113.49 8.58261V27.4183C113.49 27.7506 113.49 28.0758 113.483 28.4028C113.483 28.6822 113.483 28.9529 113.479 29.2325C113.468 29.8364 113.413 30.4386 113.312 31.0342C113.215 31.6305 113.027 32.2084 112.756 32.748C112.48 33.2851 112.121 33.7754 111.693 34.2009C111.268 34.6301 110.777 34.9882 110.239 35.2617C109.698 35.5349 109.12 35.7263 108.523 35.8295C107.929 35.9278 107.328 35.981 106.725 35.9886C106.451 35.9947 106.17 35.9982 105.896 35.9982C105.573 36 105.244 36 104.921 36H8.57338C8.24367 36 7.91787 36 7.58902 35.9982C7.31374 35.9982 7.04065 35.9947 6.76272 35.9886C6.15897 35.9806 5.55667 35.9274 4.96086 35.8295C4.36592 35.727 3.78974 35.5356 3.25163 35.2617C2.71287 34.9884 2.22146 34.6302 1.79617 34.2009C1.36695 33.7771 1.00917 33.2864 0.736742 32.748C0.463174 32.2088 0.273652 31.6308 0.174755 31.0342C0.0746438 30.4387 0.0207718 29.8363 0.0136226 29.2325C0.00527818 28.9529 0.00439698 28.6822 0 28.4028V7.6C0.00439698 7.32402 0.00527818 7.04717 0.0136226 6.77123C0.0207696 6.16737 0.0746416 5.56497 0.174755 4.96943C0.273926 4.37315 0.463437 3.7955 0.736742 3.25645C1.00929 2.71632 1.36702 2.22368 1.79617 1.79747C2.22308 1.37006 2.71417 1.01214 3.25163 0.736684C3.78974 0.46354 4.36598 0.273295 4.96086 0.172385C5.55657 0.0736254 6.15894 0.0204586 6.76272 0.013347C7.04065 0.00894597 7.31374 0.00371699 7.58902 0.00191699C7.91788 0 8.24365 0 8.57338 0ZM7.85271 34.8324L104.56 34.8342L105.529 34.8324C105.795 34.8324 106.069 34.829 106.33 34.823C106.89 34.8162 107.448 34.7682 108 34.6791C108.519 34.5922 109.021 34.4287 109.491 34.1941C109.954 33.9616 110.376 33.6571 110.741 33.292C111.107 32.9342 111.413 32.5216 111.648 32.0696C111.885 31.6058 112.047 31.1089 112.131 30.5963C112.222 30.0557 112.273 29.5092 112.284 28.9612C112.287 28.6907 112.287 28.4279 112.287 28.141C112.294 27.8257 112.294 27.513 112.294 27.1924V8.72935C112.294 8.41188 112.294 8.097 112.287 7.76618C112.287 7.4991 112.287 7.23074 112.284 6.9809C112.274 6.42295 112.222 5.86651 112.129 5.31602C112.045 4.8101 111.884 4.31966 111.651 3.86136C111.175 2.94484 110.421 2.19835 109.493 1.72652C109.023 1.49315 108.52 1.33027 108 1.24321C107.451 1.15425 106.896 1.1063 106.34 1.09977L105.524 1.08857H7.85314L7.04696 1.09934C6.48551 1.10621 5.92538 1.15459 5.37126 1.24407C4.8573 1.33005 4.35935 1.49181 3.89408 1.72393C3.43124 1.95806 3.00845 2.26243 2.64115 2.62595C2.27343 2.98604 1.96714 3.40251 1.73416 3.85921C1.49761 4.3207 1.33387 4.81517 1.2486 5.3255C1.15696 5.87151 1.10752 6.42361 1.1007 6.97702C1.09548 7.15622 1.08758 7.76618 1.08758 7.76618V28.1453C1.08758 28.1453 1.09499 28.7648 1.10066 28.9508C1.10777 29.5051 1.1575 30.0581 1.24942 30.6049C1.33453 31.1139 1.49815 31.6069 1.73457 32.0669C1.96841 32.5239 2.27641 32.9401 2.64635 33.2989C3.01102 33.662 3.43246 33.9648 3.89452 34.1957C4.36086 34.4286 4.85975 34.5915 5.37475 34.6791C5.92706 34.7677 6.48526 34.8158 7.04476 34.823C7.31484 34.829 7.58049 34.8324 7.85271 34.8324Z"
    fill="#222222" />
<path fill-rule="evenodd" clip-rule="evenodd"
    d="M88.2358 26.4821H89.8052V15.9829H88.2358V26.4821ZM102.113 19.7627L100.378 24.2983H100.296L98.4785 19.7627H96.8265L99.5524 26.1461L97.983 29.6738H99.5524L103.765 19.7627H102.113ZM93.4397 25.3061C92.9441 25.3061 92.2007 25.0542 92.2007 24.3822C92.2007 23.5423 93.1093 23.2903 93.8528 23.2903C94.5136 23.2903 94.844 23.4583 95.257 23.6263C95.0918 24.6342 94.2658 25.3061 93.4397 25.3061ZM93.605 19.5107C92.4485 19.5107 91.2921 20.0146 90.8791 21.1066L92.2833 21.6945C92.6137 21.1066 93.1093 20.9386 93.6876 20.9386C94.5136 20.9386 95.257 21.4425 95.3396 22.2824V22.3664C95.0918 22.1985 94.431 21.9465 93.7701 21.9465C92.2833 21.9465 90.7964 22.7864 90.7964 24.2983C90.7964 25.7261 92.0355 26.6501 93.3572 26.6501C94.431 26.6501 94.9266 26.1461 95.3396 25.6422H95.4222V26.4821H96.909V22.4504C96.7439 20.6026 95.3396 19.5107 93.605 19.5107ZM84.1056 21.0225H81.8753V17.4108H84.1056C85.262 17.4108 85.9229 18.4187 85.9229 19.1747C85.8403 20.0986 85.1794 21.0225 84.1056 21.0225ZM84.023 15.9829H80.3058V26.4821H81.8753V22.5344H84.023C85.7576 22.5344 87.4097 21.2745 87.4097 19.2587C87.4097 17.2428 85.7576 15.9829 84.023 15.9829ZM63.8678 25.3061C62.7939 25.3061 61.8853 24.3822 61.8853 23.1224C61.8853 21.8625 62.7939 20.9386 63.8678 20.9386C64.9416 20.9386 65.7677 21.8625 65.7677 23.1224C65.7677 24.3822 64.9416 25.3061 63.8678 25.3061ZM65.6851 20.3506C65.2721 19.9307 64.6112 19.5107 63.7852 19.5107C62.0505 19.5107 60.3985 21.1066 60.3985 23.1224C60.3985 25.1382 61.9679 26.6501 63.7852 26.6501C64.6112 26.6501 65.2721 26.2301 65.6025 25.8101H65.685V26.3141C65.685 27.658 64.9416 28.414 63.7852 28.414C62.8765 28.414 62.2157 27.742 62.0505 27.1541L60.7289 27.742C61.1419 28.6659 62.1332 29.8418 63.8678 29.8418C65.685 29.8418 67.1719 28.7499 67.1719 26.1461V19.7627H65.685V20.3506H65.6851ZM68.1631 26.4821H69.7326V15.9829H68.1631V26.4821ZM72.0455 23.0383C72.0455 21.6945 73.1193 20.9386 73.8628 20.9386C74.441 20.9386 75.0192 21.2745 75.1844 21.6945L72.0455 23.0383ZM76.8365 21.8625C76.5061 21.0225 75.6801 19.5947 73.8628 19.5947C72.0455 19.5947 70.5586 21.0225 70.5586 23.2064C70.5586 25.2222 72.0455 26.8181 74.028 26.8181C75.5974 26.8181 76.5887 25.8101 76.9191 25.2222L75.7627 24.3822C75.3496 24.9702 74.854 25.3902 74.028 25.3902C73.2019 25.3902 72.7064 25.0542 72.2933 24.2983L77.0017 22.2824L76.8365 21.8625ZM39.3346 20.6866V22.1984H42.8866C42.804 23.0383 42.4735 23.7103 42.0606 24.1303C41.5649 24.6342 40.7389 25.2222 39.3346 25.2222C37.1043 25.2222 35.4523 23.4583 35.4523 21.1905C35.4523 18.9227 37.1869 17.1588 39.3346 17.1588C40.4911 17.1588 41.3997 17.6628 42.0606 18.2508L43.1344 17.1588C42.2257 16.3189 41.0693 15.647 39.4172 15.647C36.4435 15.647 33.8828 18.1667 33.8828 21.1905C33.8828 24.2143 36.4435 26.7341 39.4172 26.7341C41.0693 26.7341 42.2257 26.2301 43.217 25.1382C44.2082 24.1303 44.5386 22.7024 44.5386 21.6105C44.5386 21.2745 44.5386 20.9386 44.456 20.6866H39.3346ZM48.5036 25.3061C47.4298 25.3061 46.5211 24.3822 46.5211 23.1224C46.5211 21.8625 47.4298 20.9386 48.5036 20.9386C49.5774 20.9386 50.4861 21.7785 50.4861 23.1224C50.4861 24.3822 49.5774 25.3061 48.5036 25.3061ZM48.5036 19.5947C46.5211 19.5947 44.9516 21.1066 44.9516 23.2064C44.9516 25.2222 46.5211 26.8181 48.5036 26.8181C50.4861 26.8181 52.0556 25.3061 52.0556 23.2064C52.0556 21.0225 50.4861 19.5947 48.5036 19.5947ZM56.1857 25.3061C55.1118 25.3061 54.2032 24.3822 54.2032 23.1224C54.2032 21.8625 55.1118 20.9386 56.1857 20.9386C57.2595 20.9386 58.1682 21.7785 58.1682 23.1224C58.1682 24.3822 57.2595 25.3061 56.1857 25.3061ZM56.1857 19.5947C54.2032 19.5947 52.6338 21.1066 52.6338 23.2064C52.6338 25.2222 54.2032 26.8181 56.1857 26.8181C58.1682 26.8181 59.7376 25.3061 59.7376 23.2064C59.7376 21.0225 58.1682 19.5947 56.1857 19.5947Z"
    fill="#222222" />
<path fill-rule="evenodd" clip-rule="evenodd"
    d="M19.4578 17.1756L22.8705 13.6696L10.762 6.5397C10.0674 6.14188 9.51543 6.18498 9.10577 6.53281L19.4578 17.1756Z"
    fill="#222222" />
<path fill-rule="evenodd" clip-rule="evenodd"
    d="M8.67069 6.91162C8.52378 7.17886 8.4707 7.54557 8.4707 7.96846V27.6536C8.4707 28.0977 8.58706 28.4799 8.77107 28.7499L19.0589 17.8878L8.67069 6.91162Z"
    fill="#222222" />
<path fill-rule="evenodd" clip-rule="evenodd"
    d="M27.4826 16.6186L23.4504 14.3367L19.9057 17.8366L23.436 21.3249L27.4826 19.0642C28.6742 18.3895 28.6742 17.2933 27.4826 16.6186Z"
    fill="#222222" />
<path fill-rule="evenodd" clip-rule="evenodd"
    d="M19.4387 18.5951L9.10577 29.2973C9.51536 29.6074 10.0593 29.5757 10.7389 29.2618L22.8705 22.1521L19.4387 18.5951Z"
    fill="#222222" />
<path
    d="M39.2454 11.7717C38.6309 12.1001 37.9437 12.2643 37.1838 12.2643C36.7991 12.2643 36.4461 12.2021 36.1248 12.0778C35.8035 11.9535 35.5267 11.7776 35.2945 11.5501C35.0623 11.3225 34.8805 11.0493 34.7492 10.7303C34.6179 10.4113 34.5522 10.0572 34.5522 9.66783C34.5522 9.2691 34.6179 8.90673 34.7492 8.58071C34.8805 8.25469 35.0623 7.97676 35.2945 7.74691C35.5267 7.51705 35.8035 7.33997 36.1248 7.21566C36.4461 7.09135 36.7991 7.0292 37.1838 7.0292C37.5638 7.0292 37.9203 7.07493 38.2533 7.16641C38.5864 7.25788 38.8842 7.42089 39.1469 7.65543L38.4925 8.31685C38.3331 8.16205 38.1396 8.04243 37.912 7.958C37.6845 7.87356 37.4441 7.83134 37.1908 7.83134C36.9328 7.83134 36.6994 7.87708 36.4907 7.96855C36.282 8.06002 36.1025 8.18668 35.9524 8.34851C35.8023 8.51035 35.6862 8.69916 35.6041 8.91494C35.522 9.13072 35.481 9.36292 35.481 9.61154C35.481 9.87892 35.522 10.1252 35.6041 10.3504C35.6862 10.5755 35.8023 10.7702 35.9524 10.9344C36.1025 11.0986 36.282 11.2276 36.4907 11.3214C36.6994 11.4152 36.9328 11.4621 37.1908 11.4621C37.416 11.4621 37.6282 11.441 37.8276 11.3988C38.027 11.3566 38.2041 11.2909 38.3589 11.2018V10.0267H37.3386V9.22454H39.2454V11.7717ZM40.3818 7.15585H43.6819V7.958H41.2684V9.18232H43.5552V9.98447H41.2684V11.3355H43.8085V12.1376H40.3818V7.15585ZM45.7893 7.958H44.2624V7.15585H48.2027V7.958H46.6758V12.1376H45.7893V7.958ZM51.0454 7.15585H51.932V12.1376H51.0454V7.15585ZM54.1309 7.958H52.604V7.15585H56.5443V7.958H55.0174V12.1376H54.1309V7.958ZM59.1408 9.66783C59.1408 9.2691 59.2064 8.90673 59.3378 8.58071C59.4691 8.25469 59.6509 7.97676 59.8831 7.74691C60.1153 7.51705 60.3921 7.33997 60.7134 7.21566C61.0347 7.09135 61.3877 7.0292 61.7724 7.0292C62.1617 7.02451 62.5182 7.08197 62.8419 7.20159C63.1656 7.32121 63.4447 7.49594 63.6792 7.7258C63.9138 7.95565 64.0967 8.23241 64.228 8.55609C64.3594 8.87976 64.4251 9.24096 64.4251 9.63969C64.4251 10.029 64.3594 10.3832 64.228 10.7022C64.0967 11.0212 63.9138 11.2956 63.6792 11.5254C63.4447 11.7553 63.1656 11.9347 62.8419 12.0637C62.5182 12.1927 62.1617 12.2596 61.7724 12.2643C61.3877 12.2643 61.0347 12.2021 60.7134 12.0778C60.3921 11.9535 60.1153 11.7776 59.8831 11.5501C59.6509 11.3225 59.4691 11.0493 59.3378 10.7303C59.2064 10.4113 59.1408 10.0572 59.1408 9.66783ZM60.0696 9.61154C60.0696 9.87892 60.1106 10.1252 60.1927 10.3504C60.2748 10.5755 60.3909 10.7702 60.541 10.9344C60.6911 11.0986 60.8705 11.2276 61.0793 11.3214C61.288 11.4152 61.5214 11.4621 61.7794 11.4621C62.0374 11.4621 62.2719 11.4152 62.483 11.3214C62.6941 11.2276 62.8747 11.0986 63.0248 10.9344C63.1749 10.7702 63.291 10.5755 63.3731 10.3504C63.4552 10.1252 63.4963 9.87892 63.4963 9.61154C63.4963 9.36292 63.4552 9.13072 63.3731 8.91494C63.291 8.69916 63.1749 8.51035 63.0248 8.34851C62.8747 8.18668 62.6941 8.06002 62.483 7.96855C62.2719 7.87708 62.0374 7.83134 61.7794 7.83134C61.5214 7.83134 61.288 7.87708 61.0793 7.96855C60.8705 8.06002 60.6911 8.18668 60.541 8.34851C60.3909 8.51035 60.2748 8.69916 60.1927 8.91494C60.1106 9.13072 60.0696 9.36292 60.0696 9.61154ZM65.3574 7.15585H66.5325L68.9459 10.857H68.96V7.15585H69.8466V12.1376H68.7208L66.258 8.31685H66.244V12.1376H65.3574V7.15585Z"
    fill="#222222" />
</svg>